<svg width="84" height="57" viewBox="0 0 84 57" fill="none" xmlns="http://www.w3.org/2000/svg">
<path d="M19.632 12.408C20.336 12.344 21.008 12.296 21.648 12.264C21.808 12.264 21.888 12.328 21.888 12.456C21.888 12.584 21.952 12.648 22.08 12.648L22.224 12.6C22.288 14.136 22.336 15.576 22.368 16.92C22.4 18.264 22.416 19.544 22.416 20.76C22.416 21.976 22.4 23.128 22.368 24.216C22.368 25.272 22.368 26.28 22.368 27.24C22.368 27.368 22.352 27.448 22.32 27.48C22.288 27.48 22.256 27.528 22.224 27.624C22.224 27.688 22.208 27.832 22.176 28.056C22.144 28.248 22.128 28.6 22.128 29.112C22.128 29.464 22.176 29.656 22.272 29.688C22.144 30.648 22.048 31.608 21.984 32.568C21.952 33.528 21.888 34.472 21.792 35.4C21.728 36.328 21.6 37.256 21.408 38.184C21.248 39.08 20.976 39.96 20.592 40.824L20.496 40.872C20.24 41 20.096 41.192 20.064 41.448C20.032 41.672 19.888 41.864 19.632 42.024C19.632 42.056 19.664 42.072 19.728 42.072C19.792 42.008 19.856 41.976 19.92 41.976C19.984 41.976 20.016 41.992 20.016 42.024C20.016 42.28 19.904 42.52 19.68 42.744C19.488 42.968 19.232 43.192 18.912 43.416C18.624 43.608 18.304 43.8 17.952 43.992C17.6 44.152 17.296 44.312 17.04 44.472C16.272 44.696 15.504 44.872 14.736 45C14 45.096 13.216 45.144 12.384 45.144C11.072 45.144 9.776 45.048 8.496 44.856C7.216 44.664 6.064 44.184 5.04 43.416C4.048 42.648 3.232 41.512 2.592 40.008C1.984 38.504 1.68 36.44 1.68 33.816C1.68 32.92 1.696 32.024 1.728 31.128C1.76 30.232 1.776 29.32 1.776 28.392V27.432C1.776 27.272 1.776 27.112 1.776 26.952C1.776 26.792 1.76 26.632 1.728 26.472C1.792 25.64 1.84 24.808 1.872 23.976C1.904 23.112 1.92 22.248 1.92 21.384C1.92 20.904 1.904 20.44 1.872 19.992C1.872 19.544 1.856 19.064 1.824 18.552C1.824 18.008 1.808 17.4 1.776 16.728C1.776 16.056 1.776 15.256 1.776 14.328V13.752C1.776 13.528 1.792 13.32 1.824 13.128C1.856 12.904 1.872 12.696 1.872 12.504C1.872 12.44 1.856 12.392 1.824 12.36C1.824 12.328 1.824 12.28 1.824 12.216V12.12C2.08 12.152 2.352 12.2 2.64 12.264C2.928 12.296 3.2 12.312 3.456 12.312C3.712 12.312 3.936 12.28 4.128 12.216C4.32 12.152 4.528 12.12 4.752 12.12C5.072 12.12 5.376 12.152 5.664 12.216C5.952 12.248 6.256 12.264 6.576 12.264C6.992 12.264 7.312 12.2 7.536 12.072C7.728 12.2 7.904 12.248 8.064 12.216C8.224 12.184 8.4 12.216 8.592 12.312C8.528 13.176 8.48 14.104 8.448 15.096C8.416 16.056 8.4 17.384 8.4 19.08C8.4 20.776 8.432 22.936 8.496 25.56C8.56 28.152 8.656 30.872 8.784 33.72C8.784 34.168 8.848 34.664 8.976 35.208C9.104 35.752 9.296 36.264 9.552 36.744C9.84 37.192 10.192 37.576 10.608 37.896C11.024 38.216 11.52 38.376 12.096 38.376C12.384 38.376 12.688 38.264 13.008 38.04L13.344 37.752L13.392 37.944C13.84 37.88 14.144 37.64 14.304 37.224C14.464 36.808 14.624 36.44 14.784 36.12L14.976 35.448C15.072 33.624 15.12 31.944 15.12 30.408C15.12 29.256 15.104 28.248 15.072 27.384C15.072 26.52 15.072 25.64 15.072 24.744C15.072 23.528 15.072 22.344 15.072 21.192C15.104 20.04 15.184 18.904 15.312 17.784L15.216 12.744C15.216 12.616 15.264 12.552 15.36 12.552H15.648C15.744 12.552 15.824 12.472 15.888 12.312C16.4 12.408 16.992 12.456 17.664 12.456C18.304 12.456 18.96 12.44 19.632 12.408ZM21.792 29.928C21.856 27.176 21.936 24.44 22.032 21.72L22.08 16.68C22.08 16.008 22.048 15.32 21.984 14.616C21.92 13.912 21.808 13.272 21.648 12.696C21.232 12.664 20.768 12.648 20.256 12.648C19.744 12.616 19.248 12.6 18.768 12.6C18.48 12.6 18.208 12.6 17.952 12.6C17.728 12.6 17.536 12.616 17.376 12.648C17.312 12.648 17.248 12.648 17.184 12.648C17.152 12.616 17.104 12.6 17.04 12.6C16.752 12.6 16.432 12.728 16.08 12.984C16.144 13.304 16.176 13.672 16.176 14.088C16.176 14.6 16.16 15.24 16.128 16.008C16.096 16.744 16.048 17.56 15.984 18.456C15.952 19.32 15.904 20.232 15.84 21.192C15.776 22.12 15.728 23.032 15.696 23.928V24.792C15.696 24.92 15.696 25.048 15.696 25.176C15.696 25.304 15.712 25.448 15.744 25.608V26.424C15.744 27.256 15.76 28.12 15.792 29.016C15.856 29.88 15.888 30.76 15.888 31.656C15.888 32.808 15.792 33.928 15.6 35.016C15.408 36.104 15.008 37.144 14.4 38.136L14.256 37.992C13.712 38.568 13.056 38.856 12.288 38.856C11.712 38.792 11.248 38.68 10.896 38.52C10.544 38.36 10.368 38.264 10.368 38.232C10.4 38.232 10.432 38.248 10.464 38.28C10.496 38.28 10.528 38.264 10.56 38.232C10.272 37.976 9.984 37.72 9.696 37.464C9.408 37.176 9.184 36.872 9.024 36.552C8.928 36.456 8.864 36.344 8.832 36.216C8.8 36.056 8.768 35.912 8.736 35.784C8.704 35.656 8.656 35.544 8.592 35.448C8.528 35.352 8.4 35.304 8.208 35.304L8.304 35.16V28.584L7.872 28.44C7.776 27.64 7.696 26.76 7.632 25.8C7.6 24.808 7.584 23.944 7.584 23.208C7.584 22.792 7.632 22.408 7.728 22.056C7.824 21.704 7.872 21.32 7.872 20.904V20.472C7.872 20.44 7.84 20.296 7.776 20.04C7.808 19.816 7.824 19.608 7.824 19.416C7.856 19.192 7.872 18.968 7.872 18.744V17.4C7.872 16.632 7.856 15.864 7.824 15.096C7.792 14.296 7.744 13.512 7.68 12.744H7.488C7.168 12.808 6.912 12.872 6.72 12.936C6.528 12.968 6.384 12.984 6.288 12.984C6.064 12.984 5.84 12.968 5.616 12.936C5.424 12.872 5.232 12.84 5.04 12.84C4.816 12.84 4.688 12.856 4.656 12.888C4.56 12.824 4.4 12.792 4.176 12.792C3.984 12.76 3.872 12.68 3.84 12.552C3.68 12.648 3.52 12.696 3.36 12.696C3.2 12.696 3.024 12.68 2.832 12.648C2.672 12.584 2.528 12.552 2.4 12.552V13.08C2.4 13.784 2.416 14.504 2.448 15.24C2.512 15.976 2.544 16.856 2.544 17.88C2.544 18.424 2.512 18.872 2.448 19.224C2.416 19.544 2.384 19.768 2.352 19.896L2.448 21.576C2.448 21.8 2.48 22.216 2.544 22.824C2.64 23.4 2.688 24.2 2.688 25.224C2.688 25.608 2.656 25.944 2.592 26.232C2.56 26.488 2.512 26.728 2.448 26.952C2.416 27.176 2.368 27.416 2.304 27.672C2.272 27.896 2.256 28.2 2.256 28.584C2.256 28.84 2.288 29.08 2.352 29.304C2.416 29.528 2.448 29.832 2.448 30.216C2.448 30.376 2.432 30.552 2.4 30.744C2.4 30.936 2.4 31.112 2.4 31.272L2.448 32.328C2.416 32.488 2.384 32.632 2.352 32.76C2.352 32.888 2.352 32.984 2.352 33.048V33.864C2.864 37.384 3.584 39.928 4.512 41.496C4.48 41.528 4.432 41.544 4.368 41.544H4.272C4.304 41.608 4.4 41.784 4.56 42.072C4.72 42.328 4.944 42.616 5.232 42.936C5.52 43.256 5.856 43.544 6.24 43.8C6.656 44.024 7.088 44.136 7.536 44.136C7.76 44.136 7.888 44.12 7.92 44.088C9.168 44.568 10.48 44.808 11.856 44.808H12.528C12.816 44.808 13.008 44.728 13.104 44.568L15.552 44.472L16.896 43.992C17.12 43.928 17.328 43.848 17.52 43.752C17.744 43.624 17.952 43.496 18.144 43.368V43.464C18.4 43.4 18.624 43.24 18.816 42.984C19.04 42.728 19.184 42.504 19.248 42.312L19.2 42.264C19.648 41.656 20.064 41.016 20.448 40.344C20.832 39.64 21.088 38.904 21.216 38.136C21.568 35.416 21.76 32.68 21.792 29.928Z" fill="white"/>
<path d="M33.544 17C33.576 17 33.608 16.992 33.64 16.976C33.64 17.952 33.632 18.752 33.616 19.376C33.616 19.984 33.608 20.464 33.592 20.816C33.576 21.152 33.552 21.384 33.52 21.512C33.504 21.64 33.48 21.704 33.448 21.704L33.136 21.68C33.104 21.648 33.08 21.608 33.064 21.56C33.048 21.496 32.944 21.424 32.752 21.344C32.56 21.264 32.272 21.176 31.888 21.08C31.52 20.984 31.168 20.936 30.832 20.936C30.464 20.936 30.168 21.04 29.944 21.248C29.736 21.456 29.568 21.72 29.44 22.04C29.328 22.36 29.256 22.72 29.224 23.12C29.192 23.504 29.176 23.872 29.176 24.224C29.176 24.64 29.184 25.072 29.2 25.52C29.232 25.968 29.264 26.408 29.296 26.84C29.328 27.256 29.36 27.664 29.392 28.064C29.424 28.448 29.448 28.792 29.464 29.096C29.08 29.16 28.696 29.208 28.312 29.24C27.944 29.288 27.608 29.32 27.304 29.336C27 29.352 26.744 29.36 26.536 29.36C26.328 29.376 26.2 29.384 26.152 29.384C25.928 29.384 25.752 29.32 25.624 29.192V28.52C25.56 27.304 25.512 26.296 25.48 25.496C25.448 24.68 25.432 24.064 25.432 23.648C25.432 22.736 25.464 21.856 25.528 21.008C25.608 20.16 25.648 19.376 25.648 18.656C25.648 18.192 25.624 17.768 25.576 17.384C25.736 17.384 25.824 17.344 25.84 17.264C25.856 17.184 25.888 17.064 25.936 16.904C26.096 16.936 26.192 16.952 26.224 16.952C26.768 16.952 27.224 16.92 27.592 16.856C27.96 16.792 28.336 16.76 28.72 16.76H28.984C29 16.744 29.008 16.736 29.008 16.736C29.008 16.72 29.016 16.704 29.032 16.688L29.104 16.616C29.184 16.776 29.216 16.976 29.2 17.216C29.2 17.456 29.24 17.68 29.32 17.888C31.384 17.44 32.728 17.104 33.352 16.88C33.416 16.912 33.448 16.944 33.448 16.976C33.464 17.008 33.488 17.024 33.52 17.024C33.52 17.008 33.528 17 33.544 17ZM31.84 20.672C32.24 20.88 32.648 21.04 33.064 21.152C33.08 20.704 33.104 20.248 33.136 19.784C33.184 19.304 33.208 18.84 33.208 18.392C33.208 18.04 33.184 17.696 33.136 17.36C32.672 17.36 32.256 17.456 31.888 17.648C31.52 17.84 31.128 17.984 30.712 18.08C30.488 18.128 30.248 18.152 29.992 18.152C29.752 18.152 29.512 18.2 29.272 18.296V18.344C29.272 18.36 29.272 18.376 29.272 18.392C29.288 18.408 29.296 18.424 29.296 18.44C29.296 18.52 29.256 18.576 29.176 18.608C29.032 18.512 28.928 18.4 28.864 18.272C28.8 18.144 28.752 18.024 28.72 17.912C28.704 17.784 28.688 17.672 28.672 17.576C28.672 17.48 28.664 17.408 28.648 17.36C28.232 17.36 27.84 17.392 27.472 17.456C27.104 17.52 26.704 17.56 26.272 17.576C26.208 17.864 26.168 18.152 26.152 18.44C26.136 18.728 26.128 19.008 26.128 19.28C26.128 19.552 26.128 19.816 26.128 20.072C26.144 20.328 26.152 20.704 26.152 21.2L26.104 21.512V21.416C26.056 21.544 26.032 21.696 26.032 21.872C26.08 22.928 26.128 23.896 26.176 24.776C26.192 25.144 26.208 25.512 26.224 25.88C26.256 26.248 26.28 26.592 26.296 26.912C26.312 27.216 26.32 27.48 26.32 27.704C26.336 27.928 26.344 28.072 26.344 28.136V28.352L26.464 28.568L26.296 29.024C26.264 29.024 26.24 29.008 26.224 28.976C26.224 28.944 26.216 28.928 26.2 28.928V28.976C26.2 29.04 26.256 29.08 26.368 29.096C26.496 29.112 26.608 29.12 26.704 29.12C27.168 29.12 27.592 29.08 27.976 29C28.376 28.904 28.776 28.824 29.176 28.76C29.032 28.072 28.936 27.32 28.888 26.504C28.84 25.672 28.816 24.824 28.816 23.96C28.816 23.672 28.824 23.32 28.84 22.904C28.872 22.488 28.944 22.096 29.056 21.728C29.168 21.344 29.336 21.016 29.56 20.744C29.8 20.472 30.136 20.336 30.568 20.336C31.032 20.336 31.456 20.448 31.84 20.672ZM43.8439 19.136C43.9719 19.68 44.0759 20.256 44.1559 20.864C44.1879 21.088 44.2199 21.32 44.2519 21.56C44.2999 21.784 44.3239 22.04 44.3239 22.328C44.3239 22.952 44.2999 23.552 44.2519 24.128C44.2039 24.704 44.1079 25.248 43.9639 25.76C43.8359 26.272 43.6519 26.744 43.4119 27.176C43.1719 27.592 42.8519 27.952 42.4519 28.256C42.3079 28.368 42.1079 28.48 41.8519 28.592C41.5959 28.704 41.3319 28.808 41.0599 28.904C40.8039 28.984 40.5639 29.048 40.3399 29.096C40.1159 29.16 39.9639 29.192 39.8839 29.192C39.5159 29.192 39.1639 29.08 38.8279 28.856C38.5079 28.616 38.1879 28.36 37.8679 28.088C37.8359 28.12 37.8199 28.192 37.8199 28.304C37.8199 28.416 37.8279 28.536 37.8439 28.664C37.8759 28.776 37.8999 28.88 37.9159 28.976C37.8519 29.024 37.7799 29.056 37.6999 29.072C37.6359 29.088 37.5719 29.096 37.5079 29.096C37.3959 29.096 37.3159 29.08 37.2679 29.048C37.2199 29.016 37.1879 29 37.1719 29C37.1559 29 37.1479 29.008 37.1479 29.024V29.072C37.1479 29.088 37.1559 29.096 37.1719 29.096C37.1719 29.128 37.0199 29.168 36.7159 29.216C36.4119 29.28 36.0279 29.312 35.5639 29.312C34.9719 29.312 34.5959 29.184 34.4359 28.928C34.4359 28.144 34.4279 27.32 34.4119 26.456C34.4119 25.592 34.4119 24.72 34.4119 23.84C34.4119 23.648 34.4199 23.344 34.4359 22.928C34.4519 22.496 34.4679 22.016 34.4839 21.488C34.4999 20.944 34.5159 20.376 34.5319 19.784C34.5639 19.192 34.5879 18.64 34.6039 18.128C34.6199 17.616 34.6359 17.176 34.6519 16.808C34.6679 16.424 34.6759 16.168 34.6759 16.04C34.6759 15.448 34.6839 14.848 34.6999 14.24C34.7319 13.632 34.7639 13.04 34.7959 12.464V12.416C34.7959 12.368 34.7719 12.344 34.7239 12.344C34.6759 12.344 34.6519 12.304 34.6519 12.224L34.9879 11.888C35.0519 11.888 35.0759 11.92 35.0599 11.984C35.0439 12.032 35.0679 12.064 35.1319 12.08H35.2999C35.3959 12.08 35.5239 12.088 35.6839 12.104C35.8599 12.104 36.0439 12.112 36.2359 12.128C36.4279 12.128 36.6119 12.136 36.7879 12.152C36.9799 12.152 37.1399 12.152 37.2679 12.152C37.4599 12.152 37.5639 12.144 37.5799 12.128C37.6439 12.224 37.6919 12.32 37.7239 12.416C37.7719 12.496 37.8039 12.6 37.8199 12.728C37.8359 12.84 37.8439 12.984 37.8439 13.16C37.8599 13.336 37.8679 13.56 37.8679 13.832C37.8679 14.36 37.8999 14.84 37.9639 15.272C38.0279 15.688 38.0599 16.128 38.0599 16.592L38.0119 16.544V16.592C38.0119 16.624 38.0119 16.672 38.0119 16.736C38.0279 16.784 38.0359 16.848 38.0359 16.928C38.0359 16.992 38.0199 17.088 37.9879 17.216C38.0039 17.232 38.0759 17.24 38.2039 17.24C38.5239 17.208 38.8039 17.136 39.0439 17.024C39.2999 16.912 39.5159 16.856 39.6919 16.856C39.7239 16.856 39.7479 16.864 39.7639 16.88C39.7799 16.88 39.8039 16.88 39.8359 16.88C39.9159 16.864 40.0359 16.856 40.1959 16.856C40.3719 16.856 40.5959 16.856 40.8679 16.856C41.5399 16.856 42.0439 16.904 42.3799 17C42.7319 17.08 43.0279 17.304 43.2679 17.672C43.5399 18.088 43.7319 18.576 43.8439 19.136ZM43.4359 25.376C43.5639 25.104 43.6439 24.848 43.6759 24.608V24.416C43.6759 24.432 43.6679 24.328 43.6519 24.104C43.6359 23.864 43.6199 23.568 43.6039 23.216C43.5879 22.848 43.5719 22.456 43.5559 22.04C43.5399 21.624 43.5319 21.24 43.5319 20.888C43.5319 20.712 43.5399 20.552 43.5559 20.408C43.5719 20.248 43.5799 20.056 43.5799 19.832C43.5799 19.592 43.5559 19.336 43.5079 19.064C43.4759 18.792 43.4039 18.544 43.2919 18.32C43.1959 18.08 43.0519 17.888 42.8599 17.744C42.6679 17.584 42.4279 17.504 42.1399 17.504C41.9639 17.504 41.8039 17.512 41.6599 17.528C41.5159 17.544 41.3319 17.552 41.1079 17.552C40.9159 17.552 40.6759 17.536 40.3879 17.504C40.0999 17.472 39.8679 17.456 39.6919 17.456C39.3559 17.456 39.0599 17.504 38.8039 17.6C38.5639 17.68 38.2599 17.792 37.8919 17.936C37.8119 17.504 37.7559 17.064 37.7239 16.616C37.7079 16.152 37.6999 15.688 37.6999 15.224C37.6999 14.76 37.6919 14.296 37.6759 13.832C37.6599 13.352 37.6199 12.864 37.5559 12.368C37.4759 12.32 37.3879 12.296 37.2919 12.296H37.0039L37.0279 12.368C36.7239 12.464 36.4839 12.528 36.3079 12.56C36.1319 12.592 35.9799 12.608 35.8519 12.608C35.6919 12.608 35.5719 12.6 35.4919 12.584C35.4119 12.552 35.3159 12.536 35.2039 12.536C35.1719 12.552 35.1559 12.592 35.1559 12.656C35.1719 12.72 35.1639 12.752 35.1319 12.752V12.872C35.0199 13.192 34.9639 13.432 34.9639 13.592C34.9959 13.624 35.0199 13.64 35.0359 13.64C34.9399 14.36 34.8919 14.792 34.8919 14.936V15.176C34.8919 15.192 34.8999 15.256 34.9159 15.368C34.9319 15.48 34.9479 15.624 34.9639 15.8C34.9959 15.96 35.0199 16.144 35.0359 16.352C35.0679 16.56 35.0839 16.768 35.0839 16.976C35.0839 17.136 35.0599 17.216 35.0119 17.216C34.9959 17.216 34.9799 17.208 34.9639 17.192C34.9639 17.176 34.9479 17.168 34.9159 17.168C34.7879 17.168 34.6999 19.536 34.6519 24.272L34.6759 24.248C34.7079 24.248 34.7239 24.368 34.7239 24.608C34.7239 24.752 34.7159 24.944 34.6999 25.184C34.6839 25.424 34.6679 25.672 34.6519 25.928C34.6519 26.168 34.6439 26.392 34.6279 26.6C34.6119 26.808 34.6039 26.96 34.6039 27.056C34.6039 27.44 34.6519 27.784 34.7479 28.088C34.7799 27.96 34.7959 27.888 34.7959 27.872C34.7959 27.824 34.7879 27.776 34.7719 27.728C34.7719 27.68 34.7719 27.632 34.7719 27.584C34.7719 27.568 34.7879 27.496 34.8199 27.368C34.8519 27.608 34.8599 27.848 34.8439 28.088C34.8279 28.312 34.8839 28.528 35.0119 28.736C35.0919 28.736 35.3319 28.736 35.7319 28.736C36.1479 28.72 36.6599 28.696 37.2679 28.664C37.2999 28.696 37.3239 28.744 37.3399 28.808C37.3559 28.872 37.4039 28.904 37.4839 28.904C37.5639 28.904 37.6119 28.824 37.6279 28.664C37.6599 28.488 37.6759 28.344 37.6759 28.232C37.6759 27.88 37.6199 27.624 37.5079 27.464C37.5399 27.432 37.5799 27.4 37.6279 27.368C37.6919 27.336 37.7479 27.304 37.7959 27.272C37.8599 27.352 37.9079 27.472 37.9399 27.632C38.1319 27.728 38.3239 27.848 38.5159 27.992C38.7079 28.12 38.8999 28.256 39.0919 28.4C39.2839 28.528 39.4679 28.64 39.6439 28.736C39.8199 28.816 39.9879 28.856 40.1479 28.856C40.5799 28.856 41.0599 28.656 41.5879 28.256C42.1159 27.84 42.5639 27.24 42.9319 26.456C43.1559 25.992 43.3239 25.632 43.4359 25.376ZM40.5079 20.072C40.7159 20.152 40.8919 20.288 41.0359 20.48C41.1319 20.64 41.2119 20.792 41.2759 20.936C41.3559 21.08 41.4199 21.248 41.4679 21.44C41.5159 21.632 41.5479 21.864 41.5639 22.136C41.5959 22.392 41.6119 22.72 41.6119 23.12C41.6119 23.584 41.5559 24.024 41.4439 24.44C41.3319 24.856 41.1719 25.224 40.9639 25.544C40.7719 25.848 40.5239 26.096 40.2199 26.288C39.9319 26.464 39.6039 26.552 39.2359 26.552C38.5639 26.552 38.1159 26.232 37.8919 25.592C37.6679 24.936 37.5559 23.952 37.5559 22.64C37.5559 22.432 37.5639 22.24 37.5799 22.064C37.6119 21.872 37.6279 21.688 37.6279 21.512C37.6279 21.256 37.5879 20.992 37.5079 20.72C37.5559 20.672 37.5799 20.608 37.5799 20.528C37.5959 20.448 37.6039 20.368 37.6039 20.288C37.6039 20.208 37.6119 20.144 37.6279 20.096C37.6439 20.032 37.6919 20 37.7719 20C37.8039 20 37.8199 20.016 37.8199 20.048C37.8199 20.08 37.8119 20.12 37.7959 20.168C37.7799 20.2 37.7719 20.232 37.7719 20.264C37.7719 20.296 37.7799 20.312 37.7959 20.312C37.9239 20.28 38.0119 20.224 38.0599 20.144C38.1079 20.048 38.1639 19.952 38.2279 19.856C38.4839 19.888 38.7479 19.904 39.0199 19.904C39.2919 19.888 39.5559 19.896 39.8119 19.928C40.0679 19.944 40.2999 19.992 40.5079 20.072ZM39.8599 25.856C40.0039 25.696 40.1399 25.552 40.2679 25.424C40.5879 25.056 40.8359 24.64 41.0119 24.176C41.1879 23.712 41.2759 23.176 41.2759 22.568C41.2759 21.8 41.1079 21.208 40.7719 20.792C40.4359 20.376 40.0119 20.168 39.4999 20.168C39.1639 20.168 38.8919 20.192 38.6839 20.24C38.4919 20.288 38.3319 20.416 38.2039 20.624C38.0919 20.816 38.0119 21.12 37.9639 21.536C37.9319 21.936 37.9159 22.496 37.9159 23.216C37.9159 23.808 37.9479 24.272 38.0119 24.608C38.0919 24.944 38.2039 25.2 38.3479 25.376C38.4439 25.504 38.6039 25.656 38.8279 25.832C39.0519 26.008 39.2679 26.096 39.4759 26.096C39.6039 26.08 39.7319 26 39.8599 25.856ZM55.1928 25.856C55.2088 26.272 55.2328 26.68 55.2648 27.08V27.056V27.08C55.2648 27.112 55.2808 27.264 55.3128 27.536C55.3448 27.792 55.3608 28.152 55.3608 28.616C55.3608 28.792 55.2728 28.92 55.0968 29C54.7768 28.968 54.4488 28.944 54.1128 28.928C53.7928 28.912 53.4728 28.904 53.1528 28.904C52.5608 28.904 52.1288 28.936 51.8568 29C51.8248 28.952 51.7848 28.912 51.7368 28.88C51.7048 28.832 51.6888 28.776 51.6888 28.712C51.6888 28.584 51.6968 28.472 51.7128 28.376C51.7448 28.28 51.7688 28.168 51.7848 28.04C51.5608 28.136 51.3608 28.24 51.1848 28.352C51.0248 28.464 50.8568 28.576 50.6808 28.688C50.5048 28.784 50.3128 28.864 50.1048 28.928C49.9128 28.992 49.6728 29.024 49.3848 29.024C48.6648 29.024 48.0568 28.864 47.5608 28.544C47.0648 28.208 46.6648 27.768 46.3608 27.224C46.0568 26.68 45.8328 26.056 45.6888 25.352C45.5608 24.632 45.4968 23.888 45.4968 23.12C45.4968 22.656 45.5128 22.248 45.5448 21.896C45.5768 21.528 45.6168 21.216 45.6648 20.96C45.7128 20.672 45.7688 20.408 45.8328 20.168C45.8488 20.136 45.8808 20.04 45.9288 19.88C45.9928 19.72 46.0728 19.504 46.1688 19.232C46.6648 18.752 47.0888 18.376 47.4408 18.104C47.8088 17.816 48.1208 17.6 48.3768 17.456C48.6328 17.312 48.8328 17.224 48.9768 17.192C49.1368 17.144 49.2568 17.12 49.3368 17.12C49.3848 17.12 49.4248 17.112 49.4568 17.096C49.5048 17.064 49.5528 17.048 49.6008 17.048C50.0968 17.064 50.5448 17.112 50.9448 17.192C51.3608 17.256 51.6808 17.424 51.9048 17.696C51.9208 17.68 51.9288 17.608 51.9288 17.48V17.216C51.9288 17.136 51.9448 17.032 51.9768 16.904C52.3768 16.984 52.8648 17.04 53.4408 17.072C54.0168 17.104 54.5608 17.12 55.0728 17.12C55.1048 17.12 55.1208 17.104 55.1208 17.072C55.1368 17.024 55.1608 17 55.1928 17C55.2728 17 55.3208 17.056 55.3368 17.168C55.3528 17.264 55.3608 17.344 55.3608 17.408C55.3608 17.984 55.3528 18.448 55.3368 18.8C55.3368 19.136 55.3288 19.44 55.3128 19.712C55.2968 19.984 55.2728 20.264 55.2408 20.552C55.2248 20.84 55.2088 21.224 55.1928 21.704V22.184C55.1928 22.472 55.1848 22.728 55.1688 22.952C55.1688 23.16 55.1688 23.336 55.1688 23.48V24.56C55.1688 24.992 55.1768 25.424 55.1928 25.856ZM55.0728 20.912C55.0728 20.592 55.0728 20.248 55.0728 19.88C55.0728 19.528 55.0888 19.184 55.1208 18.848C55.1528 18.496 55.1688 18.152 55.1688 17.816C55.1688 17.576 55.1288 17.44 55.0488 17.408C54.9848 17.408 54.9608 17.448 54.9768 17.528C55.0088 17.592 54.9928 17.624 54.9288 17.624C54.8488 17.624 54.7608 17.608 54.6648 17.576C54.5848 17.544 54.5048 17.512 54.4248 17.48C54.2168 17.64 53.9448 17.72 53.6088 17.72C53.2408 17.72 52.8328 17.632 52.3848 17.456C52.3368 17.584 52.2968 17.72 52.2648 17.864C52.2328 18.008 52.1688 18.128 52.0728 18.224C51.8968 18.128 51.7208 17.992 51.5448 17.816C51.3848 17.64 51.2248 17.552 51.0648 17.552L51.0888 17.48C51.0888 17.448 51.0008 17.416 50.8248 17.384C50.6488 17.336 50.4968 17.312 50.3688 17.312C50.2408 17.312 50.0808 17.32 49.8888 17.336C49.7128 17.352 49.5288 17.376 49.3368 17.408C49.1448 17.424 48.9688 17.456 48.8088 17.504C48.6648 17.536 48.5608 17.576 48.4967 17.624C48.1128 17.944 47.7048 18.264 47.2728 18.584C46.8408 18.888 46.5288 19.232 46.3368 19.616C46.2408 19.792 46.1688 20.016 46.1208 20.288C46.0728 20.544 46.0328 20.816 46.0008 21.104C45.9688 21.376 45.9448 21.64 45.9288 21.896C45.9288 22.152 45.9288 22.36 45.9288 22.52C45.9288 23.08 45.9448 23.664 45.9768 24.272C46.0248 24.88 46.1288 25.456 46.2888 26C46.4488 26.528 46.6808 27 46.9848 27.416C47.3048 27.816 47.7448 28.096 48.3048 28.256C48.3848 28.256 48.4808 28.288 48.5928 28.352C48.7048 28.4 48.8488 28.424 49.0248 28.424C49.1848 28.424 49.3608 28.408 49.5528 28.376C49.7608 28.344 49.9528 28.312 50.1288 28.28C50.3208 28.232 50.4808 28.184 50.6088 28.136C50.7528 28.088 50.8408 28.04 50.8728 27.992C50.9048 27.992 50.9128 28.016 50.8968 28.064C50.8968 28.096 50.9128 28.112 50.9448 28.112C51.1208 27.984 51.2888 27.856 51.4488 27.728C51.6248 27.584 51.8088 27.456 52.0008 27.344C52.0168 27.36 52.0247 27.44 52.0247 27.584C52.0247 27.712 52.0088 27.848 51.9768 27.992C51.9608 28.12 51.9528 28.248 51.9528 28.376C51.9528 28.504 51.9848 28.584 52.0488 28.616C52.1288 28.648 52.2248 28.664 52.3368 28.664C52.7048 28.664 53.0488 28.64 53.3688 28.592C53.7048 28.544 54.0408 28.52 54.3768 28.52C54.6168 28.52 54.8568 28.544 55.0968 28.592C55.0808 27.92 55.0648 27.272 55.0488 26.648C55.0488 26.008 55.0488 25.368 55.0488 24.728C55.0488 24.456 55.0488 24.216 55.0488 24.008C55.0648 23.8 55.0728 23.592 55.0728 23.384C55.0728 23.16 55.0728 22.92 55.0728 22.664C55.0888 22.408 55.0968 22.104 55.0968 21.752C55.0968 21.496 55.0888 21.216 55.0728 20.912ZM50.2248 19.952C50.5768 19.936 50.9848 19.92 51.4488 19.904C51.7208 20.032 51.9048 20.24 52.0008 20.528C52.1128 20.816 52.1688 21.152 52.1688 21.536C52.1688 22.016 52.1368 22.48 52.0728 22.928C52.0088 23.376 51.9368 23.784 51.8568 24.152C51.7768 24.504 51.7048 24.8 51.6408 25.04C51.5768 25.264 51.5448 25.392 51.5448 25.424H51.5688V25.256C51.3448 25.368 51.1208 25.488 50.8968 25.616C50.6728 25.744 50.4328 25.808 50.1768 25.808C50.0008 25.808 49.7928 25.744 49.5528 25.616C49.3128 25.488 49.0808 25.312 48.8568 25.088C48.6328 24.848 48.4408 24.56 48.2808 24.224C48.1208 23.888 48.0408 23.512 48.0408 23.096C48.0408 22.856 48.0648 22.584 48.1128 22.28C48.1768 21.976 48.2568 21.68 48.3528 21.392C48.4648 21.104 48.5928 20.848 48.7368 20.624C48.8968 20.4 49.0728 20.248 49.2648 20.168C49.5688 20.04 49.8888 19.968 50.2248 19.952ZM51.3528 24.296C51.5608 23.784 51.6968 23.224 51.7608 22.616C51.7768 22.568 51.7848 22.472 51.7848 22.328V22.064C51.7848 21.552 51.6728 21.144 51.4488 20.84C51.2408 20.536 50.8808 20.384 50.3688 20.384C49.7928 20.384 49.3528 20.568 49.0488 20.936C48.7448 21.288 48.5928 21.76 48.5928 22.352C48.5928 22.816 48.6168 23.24 48.6648 23.624C48.7128 24.008 48.8088 24.344 48.9528 24.632C49.0968 24.904 49.2888 25.12 49.5288 25.28C49.7848 25.44 50.1208 25.528 50.5368 25.544C50.8728 25.224 51.1448 24.808 51.3528 24.296ZM60.3188 29.408C60.3028 29.424 60.2468 29.432 60.1508 29.432L57.5348 29.216C57.4548 29.232 57.3988 29.28 57.3668 29.36C57.3508 29.44 57.3108 29.48 57.2468 29.48C57.1348 29.48 57.0628 29.44 57.0308 29.36C56.9988 29.296 56.9748 29.216 56.9588 29.12C56.9588 29.04 56.9508 28.96 56.9348 28.88C56.9188 28.8 56.8708 28.752 56.7908 28.736C56.7908 28.672 56.8068 28.632 56.8388 28.616C56.8868 28.6 56.9108 28.552 56.9108 28.472C56.8628 28.008 56.8308 27.536 56.8148 27.056C56.7988 26.576 56.7908 26.088 56.7908 25.592C56.7908 24.632 56.8148 23.688 56.8628 22.76C56.9108 21.816 56.9508 20.888 56.9828 19.976C56.9988 19.592 57.0228 19.224 57.0548 18.872C57.1028 18.504 57.1268 18.16 57.1268 17.84C57.1108 17.76 57.0948 17.68 57.0788 17.6C57.0788 17.52 57.0788 17.448 57.0788 17.384C57.0788 17.288 57.0948 17.2 57.1268 17.12C57.1588 17.04 57.2308 16.96 57.3428 16.88C57.5028 16.912 57.6548 16.944 57.7988 16.976C57.9588 16.992 58.1268 17 58.3028 17C58.6388 17 58.9668 16.968 59.2868 16.904C59.6228 16.84 59.9428 16.808 60.2468 16.808C60.3268 16.808 60.3988 16.816 60.4628 16.832C60.5428 16.832 60.6228 16.84 60.7028 16.856C60.6228 17.032 60.5668 17.248 60.5348 17.504C60.5188 17.76 60.4948 17.944 60.4628 18.056V18.128C60.5748 18.128 60.6548 18.096 60.7028 18.032C60.7668 17.952 60.8388 17.888 60.9188 17.84C61.0468 17.76 61.1908 17.696 61.3508 17.648C61.5268 17.6 61.6948 17.536 61.8548 17.456C62.0308 17.376 62.1988 17.288 62.3588 17.192C62.5188 17.096 62.6948 17.048 62.8868 17.048C62.9668 17.048 63.0548 17.064 63.1508 17.096C63.2468 17.112 63.3588 17.12 63.4868 17.12C63.6468 17.12 63.8068 17.112 63.9668 17.096C64.1268 17.08 64.2868 17.072 64.4468 17.072C64.9908 17.072 65.4228 17.248 65.7428 17.6C66.0628 17.952 66.3028 18.392 66.4628 18.92C66.6228 19.448 66.7188 20.024 66.7508 20.648C66.7988 21.272 66.8228 21.856 66.8228 22.4C66.8228 23.12 66.7828 23.88 66.7028 24.68C66.6388 25.464 66.5908 26.192 66.5588 26.864V27.296C66.5588 27.696 66.5268 28.072 66.4628 28.424C66.3988 28.776 66.3348 29.104 66.2708 29.408C66.1268 29.328 65.9748 29.272 65.8148 29.24C65.6708 29.224 65.5268 29.216 65.3828 29.216C65.0788 29.216 64.7748 29.248 64.4708 29.312C64.1668 29.376 63.8548 29.408 63.5348 29.408H63.3668C63.2868 29.408 63.2388 29.4 63.2228 29.384C63.2868 29.144 63.3188 28.784 63.3188 28.304C63.3188 27.84 63.2868 27.368 63.2228 26.888C63.1588 26.408 63.1108 25.904 63.0788 25.376C63.0468 24.928 63.0308 24.448 63.0308 23.936C63.0468 23.424 63.0308 22.96 62.9828 22.544C62.9508 22.128 62.8708 21.784 62.7428 21.512C62.6308 21.224 62.4308 21.08 62.1428 21.08C61.7588 21.08 61.4548 21.168 61.2308 21.344C61.0068 21.504 60.8388 21.736 60.7268 22.04C60.6148 22.328 60.5428 22.664 60.5108 23.048C60.4788 23.432 60.4628 23.84 60.4628 24.272C60.4628 24.448 60.4628 24.616 60.4628 24.776C60.4788 24.936 60.4868 25.096 60.4868 25.256C60.4868 25.864 60.4468 26.472 60.3668 27.08C60.3028 27.688 60.2708 28.256 60.2708 28.784C60.2708 28.896 60.2708 29 60.2708 29.096C60.2868 29.208 60.3028 29.312 60.3188 29.408ZM66.2708 27.632C66.3348 27.136 66.3828 26.64 66.4148 26.144C66.4308 26.064 66.4388 25.992 66.4388 25.928C66.4388 25.864 66.4388 25.792 66.4388 25.712V25.28C66.4388 24.128 66.3988 23.08 66.3188 22.136C66.2388 21.176 66.0868 20.352 65.8628 19.664C65.6548 18.976 65.3668 18.44 64.9988 18.056C64.6468 17.672 64.1908 17.48 63.6308 17.48C63.1508 17.48 62.7348 17.512 62.3828 17.576C62.0468 17.64 61.7588 17.72 61.5188 17.816C61.2788 17.912 61.0788 18.024 60.9188 18.152C60.7588 18.264 60.6308 18.368 60.5348 18.464C60.5348 18.496 60.5428 18.52 60.5588 18.536C60.5748 18.552 60.5828 18.576 60.5828 18.608C60.5668 18.624 60.5588 18.64 60.5588 18.656C60.5268 18.656 60.5028 18.656 60.4868 18.656C60.4708 18.64 60.4548 18.632 60.4388 18.632C60.4228 18.632 60.4148 18.624 60.4148 18.608C60.3668 18.608 60.3188 18.624 60.2708 18.656C60.2388 18.672 60.2068 18.68 60.1748 18.68C60.1588 18.68 60.1428 18.672 60.1268 18.656C60.1428 18.544 60.1668 18.392 60.1988 18.2C60.2468 17.992 60.2708 17.8 60.2708 17.624C60.2708 17.592 60.2628 17.56 60.2468 17.528C60.2468 17.48 60.2468 17.44 60.2468 17.408C59.8148 17.408 59.3988 17.392 58.9988 17.36C58.5988 17.328 58.1908 17.312 57.7748 17.312C57.6148 17.312 57.5188 17.368 57.4868 17.48C57.4708 17.576 57.4628 17.672 57.4628 17.768C57.4788 17.784 57.4868 17.8 57.4868 17.816C57.4868 17.848 57.4948 17.88 57.5108 17.912C57.5428 17.88 57.5508 17.84 57.5348 17.792C57.5348 17.744 57.5748 17.72 57.6548 17.72C57.5268 18.04 57.4468 18.352 57.4148 18.656C57.3828 18.96 57.3668 19.272 57.3668 19.592C57.3668 20.088 57.3828 20.584 57.4148 21.08C57.4468 21.56 57.4628 22.048 57.4628 22.544C57.4628 22.752 57.4548 22.96 57.4388 23.168C57.4388 23.376 57.4388 23.592 57.4388 23.816C57.4388 24.088 57.4388 24.352 57.4388 24.608C57.4548 24.848 57.4628 25.088 57.4628 25.328C57.4628 25.92 57.4228 26.488 57.3428 27.032C57.2788 27.56 57.2468 28.104 57.2468 28.664C57.7588 28.664 58.2148 28.736 58.6148 28.88C59.0308 29.008 59.4628 29.072 59.9108 29.072C60.0548 29.072 60.1268 29.024 60.1268 28.928C60.1428 28.816 60.1508 28.696 60.1508 28.568C60.1508 28.392 60.1268 28.048 60.0788 27.536C60.0308 27.024 60.0068 26.496 60.0068 25.952C60.0068 25.392 60.0388 24.856 60.1028 24.344C60.1668 23.816 60.2548 23.272 60.3668 22.712C60.3988 22.536 60.4308 22.352 60.4628 22.16C60.4948 21.968 60.5348 21.816 60.5828 21.704C60.6308 21.592 60.7108 21.48 60.8228 21.368C60.9348 21.24 61.0548 21.128 61.1828 21.032C61.3108 20.92 61.4468 20.832 61.5908 20.768C61.7348 20.704 61.8628 20.672 61.9748 20.672C62.2948 20.672 62.5508 20.784 62.7428 21.008C62.9508 21.216 63.1108 21.504 63.2228 21.872C63.3508 22.224 63.4388 22.624 63.4868 23.072C63.5348 23.52 63.5668 23.984 63.5828 24.464C63.6148 24.944 63.6308 25.416 63.6308 25.88C63.6468 26.344 63.6708 26.76 63.7028 27.128C63.7188 27.272 63.7268 27.416 63.7268 27.56C63.7428 27.688 63.7508 27.824 63.7508 27.968V28.856C63.7508 28.92 63.7188 28.952 63.6548 28.952C63.6068 28.952 63.5828 28.992 63.5828 29.072C63.7908 29.04 64.0148 29.016 64.2548 29C64.4948 28.984 64.7428 28.976 64.9988 28.976C65.4948 28.976 65.8788 29.032 66.1508 29.144C66.1828 28.632 66.2228 28.128 66.2708 27.632Z" fill="white"/>
<path d="M31.38 32.255C31.902 32.255 32.2597 33.1347 32.453 34.894C32.2597 35.3773 31.9407 35.619 31.496 35.619C31.1867 35.561 30.8773 35.2033 30.568 34.546L30.046 34.372C29.1373 34.372 28.3157 34.9713 27.581 36.17V36.431C27.581 36.721 28.944 37.2043 31.67 37.881C32.8107 38.5577 33.381 39.3793 33.381 40.346C33.381 41.9313 32.105 43.2847 29.553 44.406L28.48 44.58C26.856 44.406 26.044 43.594 26.044 42.144V42.057C26.044 41.593 26.3437 41.3223 26.943 41.245C27.407 41.245 27.7163 41.7283 27.871 42.695L28.103 42.869H28.596C29.698 42.869 30.7227 42.115 31.67 40.607V40.23C31.67 39.65 30.4037 39.1087 27.871 38.606C26.537 38.0647 25.87 37.3107 25.87 36.344C25.87 35.0873 26.9237 33.908 29.031 32.806C29.959 32.69 30.742 32.5063 31.38 32.255ZM38.0106 35.387C40.0599 35.387 41.2682 36.6727 41.6356 39.244C41.6356 41.5253 40.5722 43.159 38.4456 44.145C38.2136 44.261 37.8946 44.319 37.4886 44.319H37.2856L36.6476 44.261V44.319L36.7636 52.062C36.6282 52.6613 36.3189 52.961 35.8356 52.961C35.2942 52.787 35.0236 52.5067 35.0236 52.12L34.7626 36.344C34.7626 35.8413 35.0622 35.5803 35.6616 35.561L36.2706 35.822C36.8119 35.532 37.3919 35.387 38.0106 35.387ZM36.5606 38.461L36.4736 39.36L36.5606 42.434L37.3726 42.637C38.6679 42.637 39.5089 41.6897 39.8956 39.795V39.36C39.7602 37.8327 39.2189 37.069 38.2716 37.069H37.8366C36.9859 37.069 36.5606 37.533 36.5606 38.461ZM48.4193 32.806C49.27 32.806 49.6953 33.1443 49.6953 33.821L49.4343 34.372L49.2603 39.679C49.2603 42.0763 49.7436 43.565 50.7103 44.145L50.7683 44.58C50.7103 45.1407 50.4493 45.421 49.9853 45.421H49.8113C48.3613 44.435 47.6363 42.927 47.6363 40.897H47.4333C46.66 43.0623 45.7223 44.145 44.6203 44.145C43.5956 43.855 43.0833 43.0913 43.0833 41.854C43.0833 39.128 44.1756 36.4117 46.3603 33.705C47.095 33.1057 47.7813 32.806 48.4193 32.806ZM44.9103 40.694L44.7943 41.506V42.057H45.0843C46.5343 38.4417 47.2593 36.2377 47.2593 35.445H47.1433C46.022 36.7017 45.2776 38.4513 44.9103 40.694ZM54.4221 34.169L55.6111 33.995C56.0944 33.995 56.3651 34.2947 56.4231 34.894C56.4231 35.416 55.7948 35.7543 54.5381 35.909C53.7454 36.5277 53.3491 37.3203 53.3491 38.287V39.244C53.7358 41.3707 54.3931 42.434 55.3211 42.434H55.6111C56.1524 42.434 56.9644 41.9217 58.0471 40.897H58.2211C58.6078 40.897 58.9171 41.1677 59.1491 41.709C58.8784 42.5403 58.0084 43.2943 56.5391 43.971C56.2684 44.087 55.9301 44.145 55.5241 44.145C53.5328 44.145 52.2374 42.579 51.6381 39.447V38.809C51.6381 36.547 52.5661 35.0003 54.4221 34.169ZM63.2215 33.589C63.9949 33.6083 65.2999 34.9617 67.1365 37.649L67.1945 38.142C67.1945 38.6833 65.8702 39.099 63.2215 39.389L63.1345 39.476V39.592C63.5405 41.332 63.9659 42.202 64.4105 42.202H64.7585C65.3772 42.202 66.3149 41.535 67.5715 40.201H67.7455C68.1322 40.201 68.4319 40.4813 68.6445 41.042C68.6445 41.506 67.8325 42.3083 66.2085 43.449C65.7832 43.7003 65.2709 43.884 64.6715 44C63.1055 44 62.0132 42.5307 61.3945 39.592C60.5052 39.4567 60.0605 39.0893 60.0605 38.49C60.0605 38.0647 60.3892 37.7843 61.0465 37.649V37.765L61.3365 37.649V36.924C61.3365 34.7007 61.9649 33.589 63.2215 33.589ZM63.3955 35.677H63.1345L63.0185 36.75V37.649H63.1345C64.2172 37.6103 64.7585 37.4943 64.7585 37.301C64.2559 36.547 63.8015 36.0057 63.3955 35.677Z" fill="white"/>
<path d="M83.6387 21.5918L71.1406 21.082L71.3164 17.25L79.6309 17.4609L78.6641 16.0547L81.6699 14.7363L83.8145 17.6016L83.6387 21.5918ZM77.293 33.1318C76.7773 33.1318 76.2646 33.0732 75.7549 32.9561C75.2451 32.8447 74.7559 32.6807 74.2871 32.4639C73.8184 32.2471 73.3818 31.9805 72.9775 31.6641C72.5732 31.3535 72.2217 30.9961 71.9229 30.5918C71.624 30.1875 71.3896 29.7422 71.2197 29.2559C71.0498 28.7754 70.9648 28.2568 70.9648 27.7002C70.9648 27.1377 71.0498 26.6133 71.2197 26.127C71.3896 25.6406 71.624 25.1953 71.9229 24.791C72.2217 24.3926 72.5732 24.0352 72.9775 23.7188C73.3818 23.4023 73.8184 23.1357 74.2871 22.9189C74.7559 22.7021 75.2451 22.5352 75.7549 22.418C76.2705 22.3066 76.7832 22.251 77.293 22.251C77.8027 22.251 78.3154 22.3066 78.8311 22.418C79.3467 22.5352 79.8389 22.7021 80.3076 22.9189C80.7764 23.1357 81.2129 23.4023 81.6172 23.7188C82.0273 24.0352 82.3818 24.3926 82.6807 24.791C82.9795 25.1953 83.2139 25.6406 83.3838 26.127C83.5537 26.6191 83.6387 27.1436 83.6387 27.7002C83.6387 28.2568 83.5537 28.7754 83.3838 29.2559C83.2139 29.7422 82.9795 30.1875 82.6807 30.5918C82.3818 30.9961 82.0273 31.3535 81.6172 31.6641C81.2129 31.9805 80.7764 32.2471 80.3076 32.4639C79.8389 32.6807 79.3467 32.8447 78.8311 32.9561C78.3154 33.0732 77.8027 33.1318 77.293 33.1318ZM77.0293 29.4229C77.2871 29.4229 77.5742 29.3877 77.8906 29.3174C78.207 29.2471 78.5029 29.1387 78.7783 28.9922C79.0537 28.8457 79.2852 28.6582 79.4727 28.4297C79.6602 28.2012 79.7539 27.9287 79.7539 27.6123C79.7539 27.29 79.6602 27.0146 79.4727 26.7861C79.2852 26.5576 79.0537 26.3672 78.7783 26.2148C78.5029 26.0684 78.207 25.96 77.8906 25.8896C77.5742 25.8193 77.2871 25.7842 77.0293 25.7842C76.7715 25.7842 76.4844 25.8193 76.168 25.8896C75.8516 25.96 75.5557 26.0684 75.2803 26.2148C75.0049 26.3672 74.7734 26.5576 74.5859 26.7861C74.3984 27.0146 74.3047 27.29 74.3047 27.6123C74.3047 27.9287 74.3984 28.2012 74.5859 28.4297C74.7734 28.6582 75.0049 28.8457 75.2803 28.9922C75.5557 29.1387 75.8516 29.2471 76.168 29.3174C76.4844 29.3877 76.7715 29.4229 77.0293 29.4229ZM77.293 44.5225C76.7773 44.5225 76.2646 44.4639 75.7549 44.3467C75.2451 44.2354 74.7559 44.0713 74.2871 43.8545C73.8184 43.6377 73.3818 43.3711 72.9775 43.0547C72.5732 42.7441 72.2217 42.3867 71.9229 41.9824C71.624 41.5781 71.3896 41.1328 71.2197 40.6465C71.0498 40.166 70.9648 39.6475 70.9648 39.0908C70.9648 38.5283 71.0498 38.0039 71.2197 37.5176C71.3896 37.0312 71.624 36.5859 71.9229 36.1816C72.2217 35.7832 72.5732 35.4258 72.9775 35.1094C73.3818 34.793 73.8184 34.5264 74.2871 34.3096C74.7559 34.0928 75.2451 33.9258 75.7549 33.8086C76.2705 33.6973 76.7832 33.6416 77.293 33.6416C77.8027 33.6416 78.3154 33.6973 78.8311 33.8086C79.3467 33.9258 79.8389 34.0928 80.3076 34.3096C80.7764 34.5264 81.2129 34.793 81.6172 35.1094C82.0273 35.4258 82.3818 35.7832 82.6807 36.1816C82.9795 36.5859 83.2139 37.0312 83.3838 37.5176C83.5537 38.0098 83.6387 38.5342 83.6387 39.0908C83.6387 39.6475 83.5537 40.166 83.3838 40.6465C83.2139 41.1328 82.9795 41.5781 82.6807 41.9824C82.3818 42.3867 82.0273 42.7441 81.6172 43.0547C81.2129 43.3711 80.7764 43.6377 80.3076 43.8545C79.8389 44.0713 79.3467 44.2354 78.8311 44.3467C78.3154 44.4639 77.8027 44.5225 77.293 44.5225ZM77.0293 40.8135C77.2871 40.8135 77.5742 40.7783 77.8906 40.708C78.207 40.6377 78.5029 40.5293 78.7783 40.3828C79.0537 40.2363 79.2852 40.0488 79.4727 39.8203C79.6602 39.5918 79.7539 39.3193 79.7539 39.0029C79.7539 38.6807 79.6602 38.4053 79.4727 38.1768C79.2852 37.9482 79.0537 37.7578 78.7783 37.6055C78.5029 37.459 78.207 37.3506 77.8906 37.2803C77.5742 37.21 77.2871 37.1748 77.0293 37.1748C76.7715 37.1748 76.4844 37.21 76.168 37.2803C75.8516 37.3506 75.5557 37.459 75.2803 37.6055C75.0049 37.7578 74.7734 37.9482 74.5859 38.1768C74.3984 38.4053 74.3047 38.6807 74.3047 39.0029C74.3047 39.3193 74.3984 39.5918 74.5859 39.8203C74.7734 40.0488 75.0049 40.2363 75.2803 40.3828C75.5557 40.5293 75.8516 40.6377 76.168 40.708C76.4844 40.7783 76.7715 40.8135 77.0293 40.8135Z" fill="white"/>
</svg>
